<svg xmlns="http://www.w3.org/2000/svg" xml:space="preserve" width="320.001" height="320.001" style="shape-rendering:geometricPrecision;text-rendering:geometricPrecision;image-rendering:optimizeQuality;fill-rule:evenodd;clip-rule:evenodd" viewBox="0 0 274.61 274.61"><path d="m160.76 175.49.73 13.93 13.48 3.89-12.98 4.91.71 13.78-8.68-10.55-13.38 4.97c1.98-3.65 5.76-8.26 7.26-11.72-1.63-3.07-6.61-7.76-8.41-11.13l13.43 3.49 7.84-11.56zm31.43-30.76 4.65 12.82 13.44-.04c-2.32 3.13-8.14 5.6-10.72 8.78l4.25 12.94c-2.13-.99-3.91-2.63-5.82-3.92-2.16-1.47-3.39-2.46-5.45-3.77-3.72 1.47-7.77 6.02-11.59 7.98l3.93-13.24c-2.77-2.75-9.45-6.14-11.02-8.38l13.86-.23 4.45-12.94zM75.09 84.52c1.47 2 11.25 33.42 11.94 35.51l37.81.18-30.45 22.52 11.44 35.77c-3.25-1.31-27.91-20.58-30.74-21.73l-15.24 10.9c-2.77 2.07-13.22 9.87-15.58 10.88l11.52-35.87c-1.33-1.52-5.69-4.41-7.62-5.79-2.71-1.94-5.06-3.7-7.79-5.63l-14.92-11.2 37.81-.01 11.82-35.53zm97.03 33.74 12.39-6.72-2.25-13.57c3.5 1.67 5.86 7.02 10.34 9.44l12.25-6.29-5.87 12.59c3.15 3.64 6.09 5.2 9.43 9.91l-13.67-1.83-5.98 12.31c-2.03-3.59-1.49-9.45-2.91-13.71l-13.74-2.13zm-18.19-45.87c2.82-2.36 6.67-8.49 9.17-10.31l-.91 13.86c2.31 1.05 11.15 4.12 12.82 5.58l-13.56 3.21-1.29 14.02-7.31-11.79-13.54 3.2c2.05-3.68 6.41-7.14 8.74-10.84l-7.07-11.91 12.95 4.98zM0 133.02c0 20.42 1.26 31.75 7.84 50.62 3.2 9.17 6.12 14.42 10.58 22.67 1.03 1.91 1.99 3.19 3.06 4.98 4.4 7.37 12.74 17.35 18.61 23.22 5.57 5.57 11.41 10.36 17.83 14.89 8.06 5.68 11.94 7.92 20.91 12.34 12.7 6.25 34.75 12.86 53.64 12.86h.73c15.14 0 22.39-.14 37.68-3.96 4.62-1.15 8.44-2.37 12.75-3.87 17.59-6.13 28.39-13.73 42.16-24.34 27.51-21.21 48.81-64.2 48.81-100.3 0-24.77-2.92-42.6-12.69-62.94-14.85-30.93-35.83-51.01-66.15-66.32C181.26 5.55 158.57 0 142.12 0c-20.67 0-31.95 1.15-51.16 7.84-3.83 1.34-8.3 3.1-11.77 4.85l-15.88 8.79C40.79 34.93 24.37 56.02 12.69 79.2 5.34 93.78 0 116.51 0 133.02z" style="fill:#d80027"/><path d="m63.27 120.04-37.81.01 14.92 11.2c2.73 1.93 5.07 3.68 7.79 5.63 1.93 1.38 6.29 4.27 7.62 5.79l-11.52 35.87c2.36-1.01 12.81-8.81 15.58-10.88l15.24-10.9c2.83 1.15 27.5 20.42 30.74 21.73l-11.44-35.77 30.45-22.52-37.81-.18c-.69-2.09-10.47-33.51-11.94-35.51l-11.82 35.53zm121.24-8.5-12.39 6.72 13.74 2.13c1.42 4.26.88 10.13 2.91 13.71l5.98-12.31 13.67 1.83c-3.34-4.71-6.29-6.27-9.43-9.91l5.87-12.59-12.25 6.29c-4.48-2.42-6.84-7.77-10.34-9.44l2.25 13.57zm3.22 46.12-13.86.23c1.57 2.24 8.25 5.63 11.02 8.38l-3.93 13.24c3.82-1.96 7.87-6.51 11.59-7.98 2.06 1.32 3.3 2.31 5.45 3.77 1.91 1.3 3.69 2.93 5.82 3.92l-4.25-12.94c2.58-3.18 8.4-5.65 10.72-8.78l-13.44.04-4.65-12.82-4.45 12.94zm-33.8-85.27-12.95-4.98 7.07 11.91c-2.34 3.7-6.69 7.16-8.74 10.84l13.54-3.2 7.31 11.79 1.29-14.02 13.56-3.21c-1.68-1.45-10.51-4.53-12.82-5.58l.91-13.86c-2.5 1.81-6.36 7.95-9.17 10.31zm-1.02 114.66-13.43-3.49c1.8 3.37 6.78 8.06 8.41 11.13-1.5 3.46-5.28 8.07-7.26 11.72l13.38-4.97 8.68 10.55-.71-13.78 12.98-4.91-13.48-3.89-.73-13.93-7.84 11.56z" style="fill:#ffd944"/></svg>
