<svg xmlns="http://www.w3.org/2000/svg" xml:space="preserve" width="294.76" height="296.51" style="shape-rendering:geometricPrecision;text-rendering:geometricPrecision;image-rendering:optimizeQuality;fill-rule:evenodd;clip-rule:evenodd" viewBox="0 0 1562.22 1571.49"><defs><style>.fil0{fill:#fff;fill-opacity:.019608}</style></defs><g id="Layer_x0020_1"><g id="_1942809638912"><path class="fil0" d="M420.31 220.32c482.42-80.13 869.57 277.57 927.72 680.93 38.79 269.13-48.81 503.48-205.4 670.24h259.62c20.81-32.26 40.07-65.93 57.5-101.05 163.63-329.7 129.51-757.37-89.51-1046.69C1026.27-30.66 437.38-121.63.01 160.64v258.23c116.35-102.7 262.21-172.3 420.31-198.55z"/><path class="fil0" d="M14.85 1051.23c0-110.78 5.62-162.8 48.44-257.61 27.27-60.38 62.33-105.27 106.62-149.81 339.82-341.8 903.71-70.3 903.71 341.25 0 181.78-31.16 291.08-163.24 424.05-33.3 33.53-106.1 82.85-154.41 102-65.17 25.84-137.19 43.2-211.96 45-64.26 1.55-151.45-21.19-211.49-45-165.21-65.51-317.66-261.97-317.66-459.88zm431.96-763.1C266.01 314.91 112.08 399.89 0 519.32v1000.82c16.02 17.86 32.87 35.01 50.53 51.34h989.17c170.88-152.06 274-382.89 239.92-651.38-46.49-366.23-402.47-695.71-832.81-631.98z"/><path class="fil0" d="M155.47 1009.87c0 131.63 32.95 211.46 113.57 291.74 149.93 149.32 395.54 148.39 537.9 4.05 69.47-70.44 125.69-162.13 119.68-265.36-4.59-78.82-.75-105.44-26.65-162.84-183.5-406.77-744.5-250.66-744.5 132.39z"/></g></g></svg>