<svg xmlns="http://www.w3.org/2000/svg" xml:space="preserve" width="320" height="116.569" style="shape-rendering:geometricPrecision;text-rendering:geometricPrecision;image-rendering:optimizeQuality;fill-rule:evenodd;clip-rule:evenodd" viewBox="0 0 287.78 104.83"><defs><style>.fil1{fill:#00a553}.fil0{fill:#fcfcfc}</style></defs><g id="Layer_x0020_1"><g id="_2695182436080"><path class="fil0" d="M76.95 11.32c24.79-4.12 44.69 14.26 47.67 34.99 3.57 24.74-13.65 43.77-34.77 47.41-24.69 4.26-44.82-14.49-47.77-34.99-3.58-24.87 13.47-43.86 34.86-47.41zM31.03 49.77c0 12.05.71 14.68 5.28 25.76 1.57 3.8 5.15 8.25 7.66 11.47 3.88 4.99 12.74 11.03 18.4 13.48 25.94 11.2 55.64 0 68-24.91 8.41-16.94 6.66-38.92-4.6-53.79-21.81-28.82-62.79-29.2-84.65-.18-2.02 2.68-3.27 4.76-4.84 7.91-2.73 5.46-5.24 14.22-5.24 20.27z"/><path class="fil1" d="M222.31 58.27c2.93 0 3.22-.23 6.04 1.18.03.01 1.28.76 1.33.8l2.17 2.5c.87 1.64 1.51 4.25 1.51 6.15 0 1.18-2.39.43-4.23.41l-16.6.01c.85-3.65 1.26-6.12 4.02-8.73 1.48-1.4 3.43-2.32 5.76-2.32zm-31.46 16.15c0 5.33 1.47 11.59 4.04 15.94 4.5 7.6 12.24 12.14 21.07 12.93 10.52.95 23.58.49 31.16-6.6.06-.06.15-.15.22-.21l.21-.21 2.12-2.13c1.5-1.61 3.59-4 4.09-6.11l-15.43-1.15c-1.72-.23-3.93-.55-5.4-.55-.31.85-.15.44-.61 1.09-.69.98.06.11-.79.91-4.91 4.59-12.8 3.9-16.47-.7-.91-1.15-4.81-8.1-1.25-8.1h41.66c0-4.96-.49-10.83-1.64-14.51-.82-2.62-1.63-5.14-3.27-7.36-.05-.07-.13-.17-.19-.24-2.27-2.95-3.65-4.63-6.79-6.81l-5.65-2.85c-9.62-3.68-25.31-3.23-35.07 2.96l-1 .7c-2.77 2.2-5.27 4.76-7.01 7.87-2.55 4.54-4 8.94-4 15.13z"/><path class="fil0" d="M56.11 54.02c0-5.69.29-8.37 2.49-13.24 1.4-3.1 3.2-5.41 5.48-7.7 17.46-17.56 46.44-3.61 46.44 17.54 0 9.34-1.6 14.96-8.39 21.79-1.71 1.72-5.45 4.26-7.94 5.24-3.35 1.33-7.05 2.22-10.89 2.31-3.3.08-7.78-1.09-10.87-2.31-8.49-3.37-16.32-13.46-16.32-23.63zm22.2-39.22C56.68 18 42.53 37.41 45.6 57.65c2.87 18.91 20.43 35.9 42.89 32.59 19.35-2.86 35.5-20.3 32.62-42.96-2.39-18.82-20.68-35.75-42.8-32.48z"/><path class="fil1" d="M150.05 46.8c-7.16 0-7.89-.71-7.84 2.29l.19 13.01h7.65c0 8.86-1.28 28.83 2.79 35.05l1.08 1.48c1.34 1.49 2.71 2.75 4.62 3.45 10 3.68 21.01-.02 25.1-.02 0-3.79-.56-7.14-1.02-10.88-.77-6.27-.03-2.29-7.91-2.29-.57 0-1.84-.83-2.22-1.18-.77-.68-1.18-1.32-1.18-2.65V62.11h11.48c0-3.36.42-4.99.42-8.08 0-2.97-.42-4.15-.42-7.23h-11.48v-9.78h-21.25v9.78zm116.05 55.68h20.4c.98 0 1.27-.3 1.27-1.27V37.02h-21.68v65.46z"/><path d="M63.34 51.9c0 6.76 1.69 10.87 5.84 14.99 7.7 7.67 20.33 7.63 27.64.21 3.57-3.62 6.46-8.33 6.15-13.64-.24-4.05-.04-5.42-1.37-8.37-9.43-20.9-38.26-12.88-38.26 6.8zM22.1 46.8H2.12v55.68h21.25V46.37c-.52.29-.45.43-1.28.43z" style="fill:#fdfdfd"/><path d="M78.31 14.81c22.12-3.28 40.41 13.66 42.8 32.48 2.88 22.66-13.26 40.1-32.62 42.96-22.46 3.32-40.02-13.68-42.89-32.59-3.07-20.25 11.08-39.65 32.71-42.85zm-1.36-3.48c-21.39 3.55-38.44 22.54-34.86 47.41 2.95 20.5 23.07 39.25 47.77 34.99 21.12-3.64 38.34-22.67 34.77-47.41-2.99-20.73-22.88-39.11-47.67-34.99z" style="fill:#05a454"/><path class="fil0" d="M0 27.67c0 19.31 26.35 17.9 26.35.85 0-13.98-19.34-17.97-24.95-5.82C.79 24.01 0 25.98 0 27.67z"/></g></g></svg>