<svg xmlns="http://www.w3.org/2000/svg" xml:space="preserve" width="320.001" height="319.995" style="shape-rendering:geometricPrecision;text-rendering:geometricPrecision;image-rendering:optimizeQuality;fill-rule:evenodd;clip-rule:evenodd" viewBox="0 0 274.49 274.49"><path d="M77.87 143.14c-3.18-34.81 22.59-62.38 53.58-65.29 34.74-3.25 62.26 22.71 65.18 53.59 3.28 34.72-22.72 62.25-53.58 65.18-34.62 3.28-62.35-22.7-65.17-53.48zM0 132.96c0 20.41 1.26 31.73 7.84 50.6 3.19 9.17 6.11 14.41 10.57 22.66 1.04 1.91 1.99 3.19 3.06 4.99 4.4 7.37 12.73 17.34 18.61 23.21 5.56 5.56 11.4 10.36 17.82 14.88 8.06 5.68 11.94 7.92 20.9 12.34 12.7 6.25 34.73 12.86 53.62 12.86 15.63 0 22.86-.08 38.39-3.96 4.62-1.15 8.44-2.37 12.75-3.87 17.59-6.13 28.38-13.72 42.15-24.33 27.5-21.2 48.79-64.17 48.79-100.25 0-24.75-2.92-42.58-12.68-62.91-14.85-30.92-35.82-50.99-66.12-66.3C181.2 5.57 158.52.02 142.09.02c-20.66 0-31.94 1.14-51.14 7.83-3.83 1.33-8.3 3.1-11.77 4.85L63.3 21.49C40.79 34.94 24.38 56.02 12.7 79.18 5.35 93.76.01 116.48.01 132.98z" style="fill:#f0efef"/><path d="M77.87 143.14c2.82 30.78 30.56 56.77 65.17 53.48 30.87-2.93 56.86-30.46 53.58-65.18-2.92-30.88-30.44-56.85-65.18-53.59-30.99 2.91-56.76 30.47-53.58 65.29z" style="fill:#d80027"/></svg>