<svg xmlns="http://www.w3.org/2000/svg" xml:space="preserve" width="320.001" height="320.001" style="shape-rendering:geometricPrecision;text-rendering:geometricPrecision;image-rendering:optimizeQuality;fill-rule:evenodd;clip-rule:evenodd" viewBox="0 0 281.05 281.05"><path d="m205.3 239.61-8.44-8.42 12.67-12.78c2.19 2.09 7.34 6.64 8.57 9.11-3.78 2.85-8.94 9.99-12.8 12.09zm-12.47-12.83-9.15-8.79c4.39-3.15 8.61-9.21 12.91-12.49l8.57 8.5c-3 4.29-9.18 8.53-12.33 12.78zm-108.39-21.4c2.39 1.98 11.82 11.06 12.75 13.3l-8.08 8.03c-2.3-.93-11.3-10.34-13.2-12.63l8.53-8.7zm143.09 12.75c-2.36-1.08-7.37-6.52-8.99-8.44 1.45-2.33 4.06-4.36 6.13-6.43 1.96-1.95 4.51-5.39 7.21-6.38 2.19 3.14 5.82 5 7.7 8.42-1.91 3.93-9.18 8.86-12.05 12.84zM41.48 205.29c1.8-3.46 5.52-5.3 7.69-8.45 2.84 1.05 22.65 21.79 26.46 25.61 2.32 2.32 7.48 6.37 8.57 9.43-3.15 2.18-5 5.83-8.44 7.7-2.28-1.16-14.45-13.92-17.41-16.87-3.04-3.04-15.56-14.85-16.87-17.41zm138.03 8.38-8.52-8.34c2.3-4.02 9.22-8.77 12.15-12.81 2.35 1.18 6.99 6.42 8.92 8.39-.94 1.85-10.39 11.13-12.54 12.77zm34.6-8.52-8.74-8.53c2.36-2.61 10.68-11.6 13.31-12.75l8.04 8.09c-.86 2.24-10.37 11.39-12.6 13.19zM54.29 191.88l8.09-8.01c2.26.94 11.49 10.46 13.19 12.69l-8.5 8.63c-2.36-1.81-11.83-11-12.77-13.31zm146.81.38c-2.13-1.87-7.52-6.78-8.6-9.14 4.12-2.88 8.74-9.91 12.8-12.08 1.69.89 7.56 6.65 8.35 8.45l-12.55 12.77zM67.28 178.69c3.16-2.15 5.02-5.92 8.48-7.68 2.07 1.12 33.12 32.1 34.26 34.28-.88 1.68-6.45 7.49-8.46 8.36l-32.29-32.03c-.17-.17-.98-1.02-1.08-1.17-.72-1.04-.72-1.46-.91-1.75zm24.38-38.17c.6-27.27 21.38-48.86 48.87-48.87 27.51 0 48.23 21.57 48.87 48.87-.5 27.21-21.46 48.85-48.87 48.86-27.38.01-48.38-21.68-48.87-48.86zm109.85-51.63 12.29 12.55-8.44 8.63c-4.09-2.41-8.73-9.21-12.81-12.17 1-1.92 7.15-8.12 8.97-9.01zm-30.44-13.15c.9-1.68 6.68-7.54 8.43-8.37 2.19 1.49 11.54 10.73 12.61 12.76-1.58 1.94-6.62 7.38-8.97 8.39-2.86-4.07-9.91-8.81-12.08-12.78zm-95.31 34.25c-1.86-1-2.94-2.46-4.47-3.99-1.76-1.76-3.05-2.6-3.89-4.47l29.87-30.09c1.66-1.66 2.56-3.31 5.1-4.19 2.16 3.12 5.97 4.99 7.66 8.48-1.19 2.15-32.23 33.17-34.28 34.25zm151.12-47.04 12.78 12.8-8.6 8.37-12.46-12.78 8.28-8.39zm-42.97-.55 8.09-8.06c2.8.99 6.67 5.87 8.97 8.17l25.84 25.66c-.93 1.66-7.35 8.1-8.94 8.99-3.36-4.77-32.05-30.71-33.96-34.76zM62.41 97.15l-8.07-8.09C55.42 86.19 79.65 63 84.23 58.4c1.65-1.65 2.71-3.3 4.96-4.16l7.99 8.09C96.04 64.9 63.7 96.55 62.41 97.14zm142.95-55.74 12.65 12.94-8.31 8.15c-2.35-1.59-4.54-4.28-6.68-6.42-1.91-1.91-5.09-4.25-6.02-6.78l8.36-7.89zm-129.6.02c3.28 1.79 5.53 5.62 8.45 7.7-1.05 2.71-14.11 14.92-17.13 17.94-2.93 2.92-15.27 16.08-17.89 17.11-2.18-3.18-5.77-5-7.75-8.45l34.32-34.29zM.01 136.13c0 20.9 1.29 32.49 8.02 51.81 3.27 9.38 6.26 14.75 10.83 23.2 1.06 1.95 2.04 3.27 3.13 5.1 4.51 7.54 13.04 17.75 19.05 23.76 5.7 5.7 11.68 10.6 18.25 15.24 8.25 5.82 12.22 8.11 21.4 12.63 13 6.4 35.56 13.16 54.9 13.16h.75c15.49 0 22.91-.14 38.56-4.06 4.73-1.18 8.64-2.43 13.05-3.96 18.01-6.28 29.05-14.05 43.15-24.91 28.15-21.7 49.95-65.7 49.95-102.65 0-25.35-2.99-43.6-12.99-64.42-15.2-31.66-36.67-52.21-67.7-67.88C185.52 5.66 162.3-.02 145.47-.02c-21.16 0-32.7 1.17-52.36 8.02-3.92 1.37-8.5 3.18-12.05 4.97l-16.26 9C41.75 35.74 24.95 57.32 12.99 81.04 5.46 95.96 0 119.23 0 136.12z" style="fill:#efefef"/><path d="M91.65 140.52h97.74c-.64-27.29-21.36-48.87-48.87-48.87-27.49 0-48.28 21.6-48.87 48.87z" style="fill:#d80027"/><path d="M189.4 140.52H91.66c.49 27.19 21.49 48.87 48.87 48.86 27.4-.01 48.36-21.65 48.87-48.86z" style="fill:#0052b3"/><path d="M41.47 205.3c1.31 2.56 13.83 14.37 16.87 17.41 2.96 2.95 15.13 15.71 17.41 16.87 3.44-1.87 5.29-5.52 8.44-7.7-1.1-3.07-6.25-7.11-8.57-9.43-3.81-3.82-23.62-24.56-26.46-25.61-2.17 3.15-5.88 5-7.69 8.45zM62.4 97.16c1.29-.59 33.64-32.24 34.77-34.81l-7.99-8.09c-2.25.86-3.31 2.51-4.96 4.16-4.58 4.59-28.81 27.79-29.89 30.66l8.07 8.09zm121.5-34.75c1.91 4.05 30.6 30 33.96 34.76 1.59-.89 8.01-7.33 8.94-8.99l-25.84-25.66c-2.3-2.3-6.17-7.18-8.97-8.17l-8.09 8.06zM67.28 178.7c.19.29.19.71.91 1.75.1.15.91 1 1.08 1.17l32.29 32.03c2.01-.86 7.58-6.68 8.46-8.36-1.15-2.18-32.19-33.15-34.26-34.28-3.46 1.76-5.31 5.53-8.48 7.68zm8.47-68.7c2.04-1.08 33.09-32.1 34.28-34.25-1.69-3.48-5.5-5.35-7.66-8.48-2.54.88-3.45 2.53-5.1 4.19L67.4 101.55c.84 1.86 2.13 2.71 3.89 4.47 1.53 1.53 2.61 2.99 4.47 3.99zM41.43 75.73c1.99 3.45 5.57 5.28 7.75 8.45 2.62-1.03 14.96-14.19 17.89-17.11 3.02-3.01 16.08-15.23 17.13-17.94-2.92-2.08-5.17-5.91-8.45-7.7L41.43 75.72zm129.63.02c2.16 3.98 9.22 8.71 12.08 12.78 2.35-1.01 7.39-6.46 8.97-8.39-1.07-2.02-10.42-11.26-12.61-12.76-1.76.83-7.54 6.69-8.43 8.37zm56.46 142.38c2.87-3.97 10.14-8.9 12.05-12.84-1.88-3.43-5.52-5.28-7.7-8.42-2.7.99-5.26 4.43-7.21 6.38-2.07 2.07-4.67 4.11-6.13 6.43 1.62 1.92 6.63 7.36 8.99 8.44zM54.28 191.89c.95 2.31 10.41 11.5 12.77 13.31l8.5-8.63c-1.69-2.23-10.92-11.75-13.19-12.69l-8.09 8.01zm159.82 13.26c2.24-1.81 11.75-10.95 12.6-13.19l-8.04-8.09c-2.63 1.15-10.95 10.14-13.31 12.75l8.74 8.53zm-138.2 8.93c1.9 2.29 10.9 11.7 13.2 12.63l8.08-8.03c-.94-2.24-10.37-11.32-12.75-13.3l-8.53 8.7zm137.75-34.58c-.79-1.8-6.66-7.56-8.35-8.45-4.06 2.17-8.68 9.2-12.8 12.08 1.08 2.36 6.47 7.27 8.6 9.14l12.55-12.77zM201.5 88.9c-1.82.89-7.97 7.09-8.97 9.01 4.08 2.96 8.72 9.77 12.81 12.17l8.44-8.63-12.29-12.55zm-22 124.77c2.15-1.64 11.6-10.92 12.54-12.77-1.92-1.97-6.57-7.21-8.92-8.39-2.93 4.05-9.85 8.79-12.15 12.81l8.52 8.34zm25.8 25.94c3.86-2.1 9.02-9.24 12.8-12.09-1.24-2.47-6.38-7.02-8.57-9.11l-12.67 12.78 8.44 8.42zm-12.48-12.83c3.15-4.26 9.33-8.49 12.33-12.78l-8.57-8.5c-4.3 3.27-8.52 9.33-12.91 12.49l9.15 8.79zm4.17-177.47c.94 2.53 4.11 4.86 6.02 6.78 2.14 2.14 4.33 4.84 6.68 6.42l8.31-8.15-12.65-12.94-8.36 7.89zm21.6 22.05 12.46 12.77 8.6-8.36-12.78-12.81z" style="fill:#000"/></svg>