<svg xmlns="http://www.w3.org/2000/svg" xml:space="preserve" width="319.996" height="319.99" style="shape-rendering:geometricPrecision;text-rendering:geometricPrecision;image-rendering:optimizeQuality;fill-rule:evenodd;clip-rule:evenodd" viewBox="0 0 283.23 283.22"><defs><style>.fil2{fill:#d80027}.fil1{fill:#efefef}</style></defs><g id="Layer_x0020_1"><g id="_1894081212032"><path d="M104.56 104.62c2.51-1.66 3.86-10.6 5.41-13.73l4.39 13.72 14.53.05c-3.23 3.08-8.12 5.75-11.58 8.66l4.29 13.78c-3.6-1.95-7.79-5.78-11.51-8.14-3.08 1.01-8.52 6.27-12.06 8.13l4.23-13.69-11.4-8.76 13.7-.02zm-50.89 0c1.63-.89 1.28-1.29 1.87-3.17 1.78-5.75 2.07-7.5 3.76-10.32l4.27 13.5 14.51.02c-2.65 2.96-8.24 5.72-11.5 8.81l4.16 13.6c-3.22-1.84-9.01-6.79-11.55-8.1-3.75 1.64-8.01 6.11-11.95 8.09l4.22-13.64c-2.43-2.79-8.41-5.86-11.41-8.74l13.61-.04zM91.2 63.41c7.3-.25 13.49 1.25 14.72-1.75 1.58-3.87 1.91-8.88 4.12-11.94l4.69 13.63 13.89.01c-1.24 1.76-9.82 7.7-11.3 8.63l4.33 13.81c-4.02-1.96-8.03-6.54-12.06-8.22-1.69 1.35-10.99 7.88-11.53 8.28l4.32-14.08c-1.82-.85-3.96-2.67-5.82-4.05-.84-.63-1.87-1.32-2.92-2.05l-2.45-2.28zm-32-13.61 4.69 13.55h13.92l-2.96 2.66c-2.58 1.92-6.73 4.53-8.2 6.46l4.18 13.31c-2.22-1.12-3.77-2.61-5.9-4.11-2.01-1.41-3.93-2.69-5.73-3.99-3.53 1.41-8.17 6.51-11.88 7.92l4.28-13.88c-2.01-.9-4.11-2.71-5.91-3.99-2.04-1.46-3.78-2.46-5.28-4.34l14.12-.11L59.2 49.8zm50.78-41.38 4.41 13.7 14.53.1c-2.83 2.58-9.34 6.23-11.51 8.79l4.16 13.6-11.47-8.15c-4.02 1.63-8.22 6.38-12.05 8.16l4.25-13.64c-3.36-3.28-8.06-5.5-11.41-8.82l14.44-.06 4.65-13.69zM65.84 21.97l12.29.2c-2.89 2.75-8.97 6.25-11.51 8.83l4.06 13.53c-3.31-2.4-7.86-5.94-11.48-8.1-4.32 2.29-7.74 6.02-11.93 8.15l3.44-11.94c-6.8 5.93-13.01 12-18.79 19.18-2.27 2.82-14.93 19.59-15.09 23.41L20 85.73c-2.5-1.26-4.11-3.17-6.72-4.33-1 1.71-4.32 8.87-4.3 10.97l3.79 12.23 14.5.02c-1.66 2.12-8.51 6.21-11.51 8.83l4.2 13.49c-4.18-2.05-7.62-5.9-11.65-8.01-2.57 1.37-4.77 3.62-7.19 4.83-1.19 2.87-1.11 13.27-1.11 17.85h141.61l.03-36.94.05-36.92-.02-36.95-.06-30.79c-26.7 0-46.28 5.81-68.04 17.14-1.8.94-6.58 3.56-7.74 4.83z" style="fill:#0052b4"/><path class="fil1" d="M4.98 178.59h273.26l1.23-3.66c2.63-11.47 3.75-21.09 3.75-33.33H0c0 7.82.38 12.92 1.2 19.82.31 2.58.96 6.41 1.56 8.95l1.7 7.14c.49 1.28.14.54.52 1.08z"/><path class="fil2" d="M21.03 215.48h241.18c3.28-1.38 15.94-31.86 16.04-36.89H4.99c.13 6.18 9.3 26.32 13.38 33.17.49.82.67 1.33 1.17 2.17l1.49 1.55z"/><path d="M53.75 252.8c1.75-.79 173.99-.78 175.72 0 5.36-3.22 13.61-12.39 17.93-17.02 4.58-4.89 7.67-9.17 11.48-14.52 1.41-1.97 2.32-3.37 3.32-5.78H21.02c2.59 6.24 10.14 14.87 14.77 20.33 1.59 1.89 2.12 2.63 3.9 4.4 1.62 1.61 2.81 2.81 4.42 4.43l7.16 6.11c1.24 1.04 1.1 1.2 2.48 2.04z" style="fill:#f0f0f0"/><path class="fil2" d="M141.62 141.61h141.61c0-10.85-.69-18.78-2.72-28.81-.32-1.61-.53-2.41-.93-4.05l-.81-3.04c-.38-.97-.18-.59-.52-1.05h-136.6l-.03 36.94z"/><path class="fil1" d="M141.65 104.66h136.6c-.39-5.09-4.88-15.41-6.79-19.88-1.12-2.63-6.85-14.97-9.25-17.13l-120.51.09-.05 36.92z"/><path class="fil2" d="m141.7 67.74 120.51-.09c-1.39-5.97-18.32-24.26-22.81-28.8l-9.27-8.16-88.45.09.02 36.95zm87.77 185.06c-1.73-.78-173.97-.79-175.72 0 26.39 19.77 51.74 30.42 87.86 30.42 20.41 0 35.32-3.38 50.26-8.93 6.67-2.48 18.53-8.14 24.43-12.08l4.64-3.11 8.53-6.3z"/><path class="fil1" d="m141.67 30.79 88.45-.09-8.52-6.14c-3.18-2.11-5.91-3.98-9.19-5.75-8.8-4.75-10.7-5.79-20.23-9.64C178.05 3.47 161.2.01 141.6.01l.06 30.79zM91.19 63.41l2.45 2.28c1.05.73 2.08 1.42 2.92 2.05 1.86 1.38 4 3.2 5.82 4.05l-4.32 14.08c.54-.4 9.84-6.93 11.53-8.28 4.03 1.67 8.03 6.25 12.06 8.22L117.32 72c1.48-.93 10.07-6.87 11.3-8.63l-13.89-.01-4.69-13.63c-2.21 3.07-2.55 8.08-4.12 11.94-1.22 3-7.42 1.5-14.72 1.75zm-36.67-.13-14.12.11c1.5 1.88 3.24 2.89 5.28 4.34 1.8 1.28 3.9 3.09 5.91 3.99L47.31 85.6c3.72-1.41 8.35-6.51 11.88-7.92 1.8 1.3 3.72 2.58 5.73 3.99 2.12 1.49 3.68 2.99 5.9 4.11l-4.18-13.31c1.47-1.92 5.61-4.54 8.2-6.46l2.96-2.66H63.88L59.19 49.8l-4.67 13.48zm-.86 41.34-13.61.04c3 2.89 8.98 5.95 11.41 8.74l-4.22 13.64c3.94-1.99 8.2-6.46 11.95-8.09 2.54 1.31 8.33 6.26 11.55 8.1l-4.16-13.6c3.25-3.09 8.85-5.84 11.5-8.81l-14.51-.02-4.27-13.5c-1.69 2.82-1.98 4.58-3.76 10.32-.59 1.89-.24 2.29-1.87 3.17zm50.9 0-13.7.02 11.4 8.76-4.23 13.69c3.54-1.87 8.98-7.12 12.06-8.13 3.72 2.36 7.92 6.2 11.51 8.14l-4.29-13.78c3.46-2.91 8.35-5.57 11.58-8.66l-14.53-.05-4.39-13.72c-1.54 3.13-2.9 12.07-5.41 13.73zm.76-82.52-14.44.06c3.35 3.31 8.05 5.54 11.41 8.82l-4.25 13.64c3.82-1.78 8.03-6.53 12.05-8.16l11.47 8.15-4.16-13.6c2.18-2.56 8.69-6.21 11.51-8.79l-14.53-.1-4.41-13.7-4.65 13.69zM1.11 123.76c2.42-1.21 4.62-3.45 7.19-4.83 4.04 2.11 7.47 5.95 11.65 8.01l-4.2-13.49c3-2.62 9.85-6.71 11.51-8.83l-14.5-.02-3.79-12.23c-2.75 3.26-7.87 26.64-7.87 31.38zM50.7 32.64l-3.44 11.94c4.19-2.13 7.62-5.86 11.93-8.15 3.63 2.15 8.17 5.69 11.48 8.1L66.61 31c2.54-2.59 8.62-6.08 11.51-8.83l-12.29-.2c-2.26.93-5.9 3.75-7.75 5.14-1.18.89-2.18 1.63-3.47 2.61-1.48 1.11-2.39 2.1-3.91 2.93zM13.28 81.4c2.61 1.16 4.22 3.07 6.72 4.33l-3.17-10.5c-.92.79-.18-.17-1.14 1.29-.13.19-.68 1.31-.76 1.46-.56 1.14-1.08 2.25-1.64 3.42z"/></g></g></svg>