<svg xmlns="http://www.w3.org/2000/svg" xml:space="preserve" width="388.384" height="212.716" style="shape-rendering:geometricPrecision;text-rendering:geometricPrecision;image-rendering:optimizeQuality;fill-rule:evenodd;clip-rule:evenodd" viewBox="0 0 6070.82 3324.96"><path d="M1029.72 255.87c-.9 4.85-.63 9.99 1.08 14.99.18.52.4 1.02.6 1.53L708.42 444.73 56.43 42.99c.67-1.31 1.19-2.68 1.64-4.07l971.66 216.95zm880.45 580.85c-.41 4.12 0 8.38 1.41 12.55.92 2.72 2.22 5.2 3.78 7.44l-471.59 398.12-356.95-560.76c5.25-4.06 8.96-9.73 10.6-16.04l812.76 158.69zm-27.8 411.68c-3.56-.15-7.2.32-10.77 1.54-15.56 5.28-23.9 22.19-18.62 37.76 1.35 3.95 3.44 7.43 6.07 10.35l-204.6 242.33c-.8-.53-1.63-1.02-2.48-1.47l278.96-670.81c.73.22 1.45.42 2.19.59l-50.75 379.71zm970.32-222.65c3.31 9.15 10.65 15.7 19.34 18.34l-92.08 450.18c-4.19-.46-8.55-.07-12.81 1.38-9.48 3.22-16.25 10.75-18.92 19.64l-838.05-230.58c.99-4.35 1.04-8.96-.06-13.53l942.57-245.44zm234.46-388.22-156.92 443.83-30.3-43.07c9.02-7.68 12.94-20.33 8.9-32.22-2.2-6.49-6.44-11.7-11.74-15.21l190.05-353.33zm611.89 209.78c-1.7 5.71-1.73 11.98.32 18.04 1.14 3.36 2.85 6.36 4.94 8.98l-202.47 194.77-378.87-443.57c2.07-2.13 3.8-4.54 5.14-7.16l570.94 228.94zm398.05 177.27c-2.06 6.01-2.24 12.7-.05 19.18 1.41 4.15 3.66 7.76 6.47 10.76l-304.52 321.81a29.84 29.84 0 0 0-18.5-6.34l-47.33-485c1.32-.25 2.65-.57 3.96-1.01 7.22-2.45 12.85-7.41 16.32-13.57l343.64 154.18zm1091.8-416.45c2.57 1.6 5.36 2.8 8.29 3.57l-111.87 448.97-181.85-54.06c.86-4.81.59-9.9-1.12-14.86-1.64-4.89-4.47-9.06-8-12.32l294.54-371.3zm836.48 298.5a29.639 29.639 0 0 0-9.23 9.01L5754.3 805.8l58.97-271.34c3.83.27 7.81-.19 11.68-1.51 1.64-.56 3.2-1.27 4.65-2.07l195.77 375.75zm-29.24 447.74c-3.2-.01-6.47.47-9.67 1.55-7.25 2.46-12.91 7.46-16.37 13.65l-199.12-88.59 251.72-325.64c3.35 2.61 7.22 4.47 11.35 5.48l-37.91 393.55zm-602.47 421.8c-.93-1.15-1.9-2.24-2.94-3.23l376.8-487.47 200.34 89.12c-2.04 5.98-2.19 12.65-.04 19.09.52 1.54 1.19 2.99 1.93 4.38l-576.09 378.1zm-866.88-194.93c.44-1.15.8-2.32 1.1-3.51l386.41 59.66c-.26 3.75.22 7.6 1.49 11.38 3.53 10.41 12.28 17.55 22.33 19.59l-9.19 86.2c-3.31-.04-6.69.43-10.01 1.55-6.81 2.31-12.2 6.85-15.74 12.52l-376.39-187.39zm-530.17 880.73a29.71 29.71 0 0 0-17.41-2.08l-132.65-473.35c14.87-5.68 22.72-22.13 17.55-37.33a27.98 27.98 0 0 0-1.23-3.04l611.97-358.34c2.02 2.84 4.51 5.22 7.31 7.14l-485.55 866.99zm-1200.44-252.22 715.78-170.84 449.33 431.69a29.707 29.707 0 0 0-4.95 9.16l-1160.16-270.01zm-767.93 594.82-221.39-240.7 426.91-282.83c2.56 3.18 5.72 5.76 9.25 7.63l-214.77 515.9zm-5.01 2.67-632.04 43.39c-.26-1.61-.63-3.21-1.16-4.8-.54-1.58-1.22-3.07-1.99-4.49l414.17-274.39 221.02 240.3zm-819.6 470.88a29.879 29.879 0 0 0-11.51-9.75l146.02-395c7.53 9.93 20.82 14.44 33.28 10.21 12.15-4.13 19.87-15.35 20.16-27.48l625.77-42.96-813.72 464.97zM620.43 2730c.3-3.85-.19-7.82-1.49-11.7-2.2-6.45-6.4-11.64-11.68-15.15l238.66-440.39 494.47 572.02a29.925 29.925 0 0 0-7.33 13.07L620.44 2730zm192.97-491.9c2.87-.96 5.44-2.32 7.74-3.98l20.95 24.2-229.14 422.83 182.18-442.81c5.77 1.78 12.13 1.85 18.27-.24zm11.83-686.91c-7.59-6.27-18.04-8.65-28.05-5.46l-149.3-313.28 177.35 318.74zm-181-730.5c3.05-1.04 5.84-2.53 8.3-4.37l133 147.14-158.52 167.27a29.849 29.849 0 0 0-14.14-5.98l22.36-302.49c3.01-.05 6.03-.56 9-1.57zM139.68 748.2c-5.61-8.57-15.32-13.64-25.52-13.4L35.88 58.93c1.15-.25 2.3-.54 3.46-.92 5.88-2 10.75-5.68 14.21-10.3l649.23 400.06-563.11 300.45zm902.52-91.31a29.648 29.648 0 0 0-3.31 12.74l-894.85 89.26c-.22-1.3-.56-2.6-1-3.89-.22-.67-.48-1.31-.74-1.95l565.94-301.96 333.97 205.8zm202.45 766.07c-6.26-6.16-15.05-9.35-24.01-8.38l-143.97-715.39c.5-.14 1.01-.26 1.51-.43 1.39-.47 2.71-1.07 3.98-1.72l357.36 561.4-194.87 164.53zm375.19 118.74a29.78 29.78 0 0 0-9.44 12.57l-357.41-104.43c.96-4.92.71-10.16-1.01-15.24-.93-2.72-2.22-5.2-3.78-7.44l194.31-164.04 177.33 278.59zm247.87-237.02-86.09 270.56-113.94-12.75c-.21-2.28-.66-4.58-1.42-6.85a29.664 29.664 0 0 0-7.51-11.82l204.35-242.04c1.45 1.11 3 2.07 4.62 2.89zm879.38 222.07-683.79 73.61a33.08 33.08 0 0 0-.96-3.67c-5.29-15.57-22.19-23.9-37.76-18.62l-.64.26-129.79-273.43c6.58-3.18 11.54-8.56 14.3-14.94l838.68 230.76c-.21 1.99-.23 4-.03 6.02zm388.95-143.16c-8.02 6.84-11.99 17.61-9.91 28.29l-321.17 102.69-.08-.28c-2.74-8.04-8.58-14.13-15.73-17.43l142.69-403.62 204.19 290.34zm-35.17-749.05 49.74 742.34c-1.62.27-3.24.63-4.85 1.18-1.85.63-3.59 1.43-5.23 2.37L2934.1 1086.9l160.24-453.24c2.11.54 4.3.83 6.53.89zm73.9 749.19a29.791 29.791 0 0 0-18.67-7.21l-49.74-742.34c1.62-.27 3.24-.63 4.84-1.18 2.77-.94 5.31-2.27 7.58-3.88l379.08 443.82-323.09 310.79zm584.53-4.7a29.862 29.862 0 0 0-8.31 18.07l-566.86 1.7c-.18-.71-.37-1.42-.61-2.13-1.14-3.36-2.85-6.36-4.94-8.98l322.86-310.57 257.86 301.9zm355.94-316.8-121.32 385.41-183.84-43.7c.64-4.48.29-9.16-1.26-13.75-1.3-3.82-3.31-7.21-5.82-10.07l304.62-321.93c2.33 1.71 4.9 3.07 7.63 4.04zm730.74-51.33c1.86 5.42 5.09 9.94 9.22 13.34l-241.37 366.77-462.35-342.83a29.78 29.78 0 0 0 3.47-13.09l689.65-30.32c.26 2.05.71 4.11 1.38 6.13zm237.99 55.13-135.5 543.77a29.5 29.5 0 0 0-4.98-.35l-63.51-578.96c1.26-.25 2.53-.56 3.76-.98 8.74-2.97 15.18-9.59 18.23-17.59l182 54.1zm130.28-454.92c3.27-1.11 6.21-2.76 8.78-4.77l416.34 604.77c-3.8 3.18-6.73 7.24-8.56 11.76l-540.23-160.61 112.02-449.63c3.83.27 7.77-.19 11.64-1.51zm447.78 593.31c-4.32-.53-8.78-.15-13.17 1.34-1.75.6-3.39 1.36-4.95 2.23l-416.86-605.46c2.46-2.81 4.35-6.04 5.62-9.52l515.26 216.13-85.9 395.29zm350.83-262.92c.44 1.36 1.04 2.65 1.67 3.9l-334.68 267.89a29.98 29.98 0 0 0-12.42-7.7l85.68-394.31 260.46 109.25c-2.68 6.44-3.13 13.84-.71 20.96zm-326.24 301.97c2.01-5.98 2.2-12.65 0-19.1-.82-2.46-1.97-4.71-3.34-6.78l334.2-267.5c.41.5.78 1.02 1.19 1.49l-252.87 327.13-79.17-35.24zm-39.29 18.08c6.4 2.56 13.65 2.97 20.65.58 7.25-2.46 12.91-7.46 16.37-13.64l77.98 34.7-375.87 486.25 260.87-507.89zm-690.68 513.2c-.74-2.17-1.71-4.19-2.87-6.07l109.9-82.87 277.91 101.35c-.34 1.34-.6 2.73-.74 4.12l-382.71-9.02c-.19-2.5-.63-5.03-1.49-7.52zm-3.13-107.34c7.96-2.69 13.99-8.42 17.34-15.45l86.68 31.61-107.07 80.72a29.78 29.78 0 0 0-16.11-9.12l9.19-86.21c3.31.05 6.66-.43 9.97-1.55zm-426.33-106.46a29.546 29.546 0 0 0-9.61-13.66l97.66-148.39 303.28 224.88a31.012 31.012 0 0 0-3.42 8.21l-386.38-59.66c.22-3.76-.24-7.6-1.52-11.38zm-679.79 370.43 150.22-477.21 471.94 112.16c-.64 4.49-.3 9.17 1.26 13.76.35 1.05.77 2.05 1.23 3.02l-611.96 358.34c-3.25-4.53-7.68-7.97-12.68-10.07zm-564.92-120.49c1.96-2.46 3.53-5.2 4.63-8.14l519.57 150.45c-.61 3.18-.71 6.49-.24 9.81l-292.86 69.89-231.09-222.02zm-44.46 2.32c7.76 7.88 19.59 11.12 30.76 7.33 3.75-1.27 7.08-3.24 9.9-5.68l228.53 219.57-724.07 172.81a29.5 29.5 0 0 0-2.81-4.94l457.69-389.08zm-952.92 439.64c-1.78-5.26-4.92-9.66-8.85-13.02l187.46-265.08 267.93 227.57c-3.43 4.9-5.36 10.78-5.39 16.87l-440.07 37.95c-.26-1.44-.59-2.87-1.08-4.29zm-580.43 199.97 525.06-178.27c.3.67.64 1.31.97 1.94l-427.64 283.32-98.4-106.98zm-322.15 381.23 272.97-347.91c7.37 4.74 16.74 6.22 25.69 3.18 13.76-4.67 21.85-18.42 19.89-32.3l97.35 105.85-413.44 273.91c-.77-.96-1.6-1.88-2.47-2.73zm-363.2-891.28c5.82 2.49 12.44 3.15 18.95 1.5l311.21 882.54-.69 1.87c-1.51.73-2.93 1.57-4.27 2.52l-495.83-573.58 170.63-314.85zm-187.3 257.59a29.623 29.623 0 0 0-7.92-12.23l188.21-243.97-167.45 309.01-19.57-22.64c7.44-7.76 10.42-19.29 6.73-30.18zm-27.83-596.58-1.6 309.78-264.89 1.01c-.19-2.24-.63-4.48-1.41-6.71a29.305 29.305 0 0 0-6.7-10.99l259.27-298.63c4.47 3.21 9.79 5.16 15.33 5.54zm-170.36-433.59 561.96 263.89c-2.22 6.13-2.47 13.02-.21 19.68 2.56 7.55 7.88 13.38 14.43 16.8l-170.34 416.43c-5.76-1.76-12.1-1.83-18.24.26-.83.28-1.64.61-2.43.96l-394.39-708.83c3.76-2.38 6.92-5.54 9.22-9.19zm976.02 404.62c.34.98.72 1.93 1.14 2.86l-189.31 109.21-177.25-221.3c3.07-2.97 5.45-6.53 7.01-10.44l357.4 104.43c-.96 4.93-.71 10.15 1.02 15.24zm170.04 5.8-118.63 372.81c-2.66-.59-5.43-.81-8.22-.63l-9.75-358.28c1.44-.26 2.88-.6 4.31-1.08 11.46-3.89 18.97-14.07 20.05-25.37l112.24 12.55zm1367.56-145.63-115.04 228.71-229.18-126.37a29.757 29.757 0 0 0 2.95-17.35l321.47-102.8a29.67 29.67 0 0 0 19.8 17.79zm139.94 347.81c-.8-2.36-1.9-4.53-3.18-6.53l172.65-129.75 354.51 295.45a30.041 30.041 0 0 0-3.19 5.97l-519.65-150.49c.83-4.75.52-9.77-1.14-14.66zm-515.65 411.36 263.01-522.89 197.36 108.82c-3.01 6.65-3.63 14.39-1.1 21.85.87 2.55 2.08 4.9 3.51 7.03l-457.76 389.16c-1.54-1.5-3.21-2.84-5.02-3.96zm-304.86-223.9 296.74-419.61a30.09 30.09 0 0 0 10.27 2.88l-19.75 636.18c-2.58.16-5.18.63-7.75 1.5-4.37 1.48-8.14 3.9-11.22 6.92l-268.3-227.88zm-216.91 263.24-203.72-600.02c3.3-1.47 6.2-3.49 8.67-5.9l404.57 343.63-187.74 265.48c-6.42-3.7-14.16-5.01-21.78-3.18zm-1206.53-291c3.15-1.45 5.93-3.43 8.31-5.75l478.86 407.93-161.52 481.93a29.597 29.597 0 0 0-13.95-.17l-311.7-883.94zm962.49-326.62c1.18 3.48 2.97 6.58 5.17 9.26l-338.33 333.55a30.051 30.051 0 0 0-6.28-3.58l118.96-373.86 218.93 24.5c-.06 3.36.41 6.78 1.55 10.13zm52.54 7.5c3.54-5.07 5.51-11.18 5.41-17.52l263-28.3 421.24-45.35c.12.42.22.84.36 1.26a29.646 29.646 0 0 0 10.42 14.31l-296.23 418.91-404.2-343.31zm-385.17 808.08-14.63-419.44c1.94-.25 3.88-.69 5.8-1.35 7.63-2.59 13.52-7.99 16.93-14.66l153.91 72.07-154.69 364.75a29.6 29.6 0 0 0-7.31-1.37zm-25.21-420.02c1.61.38 3.24.65 4.9.76l8.96 254 5.84 165.44a29.6 29.6 0 0 0-16.97 8.23l-113.83-96.97 111.09-331.47zm-592.77-78.87c2.36-3.36 4.01-7.17 4.83-11.21l565.01 60.7c-.04 3.31.43 6.69 1.55 10 2.79 8.21 8.82 14.38 16.18 17.63l-110.39 329.38-477.18-406.5zm570.43 44.02-565.02-60.71c.05-3.31-.43-6.68-1.55-10-.34-.98-.72-1.93-1.14-2.86l362.29-209 213.91 267.07c-4.34 4.19-7.3 9.61-8.5 15.5zm57.34-3.67c-1.19-3.51-3-6.63-5.23-9.33l337.17-334.47a30.12 30.12 0 0 0 5 3.39l-182.58 430.52-154.02-72.11c1.69-5.7 1.71-11.94-.34-17.99zm-304.88 857.72c-1.26-.82-2.57-1.56-3.93-2.19l160.84-479.93 112.15 95.53c-5.28 7.51-7.04 17.32-3.87 26.68 1.61 4.76 4.32 8.83 7.73 12.05l-84.64 107.88-188.29 239.97zm866.56-595.37c-5.84 2.6-10.47 6.91-13.53 12.12l-388.8-182.04 182.66-430.71a29.6 29.6 0 0 0 15.95.61l203.72 600.02zm785.17-566.64-263.11 523.08c-2.3-.9-4.71-1.5-7.2-1.81l18.03-580.67 1.73-55.69c2.29-.21 4.59-.66 6.86-1.43a29.65 29.65 0 0 0 14.07-10.09l229.62 126.62zm134.95-234.15c2.37-.8 4.55-1.91 6.56-3.21l78.24 332.91-.05.02c-6.24 2.11-11.29 6.12-14.79 11.13l-197.61-108.95 115.89-230.39c3.87.29 7.86-.18 11.77-1.51zm593.68-14.67a29.807 29.807 0 0 0 22.23 9.75l38.98 394.27 10.46 105.81c-1.31.26-2.62.57-3.92 1.01-4.46 1.52-8.29 4.01-11.42 7.12l-353.52-294.62 297.19-223.34zm-503.52 343.11-17.91-76.18-60.93-259.28c2.75-2.72 4.93-5.94 6.45-9.46l269.87 224.92-171.7 129.03c-6.53-6.9-16.12-10.41-25.78-9.03zm497.37-353.54c.74 2.16 1.72 4.16 2.87 6.03l-298.24 224.12-272.61-227.19c.54-2.61.74-5.29.56-8l566.01-1.7c.21 2.24.66 4.5 1.41 6.73zm-2114.6 185.64 9.76 358.65c-.74.19-1.49.38-2.24.64-2.46.84-4.72 1.99-6.79 3.36l-213.39-266.42 188.59-108.79c5.54 7.82 14.54 12.48 24.07 12.55zm-404.48-122.61c2.46-.84 4.72-2 6.79-3.36l176.73 220.64-361.57 208.59c-2.76-3.91-6.4-7.02-10.54-9.18l170.34-416.43c5.76 1.76 12.1 1.82 18.24-.26zm-423.65 131.27c2.01-.25 4.05-.69 6.06-1.37 1.97-.67 3.8-1.52 5.55-2.53l191.19 292.41c-6.39 5.07-10.42 12.57-11.13 20.64l-193.27.74 1.6-309.89zm-2.98 576.68 1.34-261.29 193.34-.74c.21 2.24.66 4.48 1.42 6.71 1.64 4.83 4.41 8.97 7.91 12.22l-190.99 247.57a29.9 29.9 0 0 0-13.02-4.47zm-268.98-260.26 264.85-1.02-1.38 261.25c-2.3.21-4.65.66-6.95 1.44-3.61 1.23-6.81 3.1-9.56 5.41l-253.61-250.84c3.79-4.6 6.14-10.26 6.66-16.23zm1161.04 528.94c-2.76-6.19-7.44-11.02-13.09-14.06l154.61-364.56 388.61 181.96c-1.91 5.31-2.35 11.19-.95 17l-529.19 179.67zm2293.48-996.11-150.1 476.83c-2.1-.45-4.27-.7-6.45-.69l-49.44-500.08c1.31-.26 2.63-.57 3.92-1.01 9.12-3.1 15.73-10.2 18.6-18.67l183.47 43.61zm142.52-390.49c2.43-.82 4.66-1.96 6.71-3.3l338.4 488.61a29.994 29.994 0 0 0-9.06 13.27l-471.56-112.08 121.29-385.3c4.62.73 9.48.4 14.22-1.21zm476.02 333.21-97.82 148.65c-7-3.73-15.45-4.69-23.55-1.94-1.78.6-3.46 1.38-5.03 2.27l-338.6-488.92a28.9 28.9 0 0 0 2.65-2.89l462.35 342.82zm263.69-364.52 63.51 578.99c-1.23.25-2.42.54-3.61.95-5.02 1.71-9.3 4.64-12.61 8.33l-303.54-225.07 241.49-366.96c4.47 2.48 9.56 3.82 14.77 3.76zm755.75 212.43c.3.92.67 1.8 1.04 2.66l-662.92 376.04c-3.61-5.2-8.74-9.03-14.59-11.07l135.46-543.54 540.01 160.54c-1 4.96-.74 10.24 1 15.38zm-658.09 386.13c-.34-.91-.67-1.8-1.08-2.66l651.99-369.83-560.32 422.45-89.99-32.83c1.41-5.46 1.34-11.38-.6-17.14zm388.66 136.9c-7.96 2.69-13.98 8.42-17.33 15.45l-274.56-100.14 567.5-427.89a28.94 28.94 0 0 0 6.03 5.07l-260.98 508.09c-6.36-2.56-13.65-2.97-20.65-.58zm-3471.86-459.71 129.99 273.84c-7.3 4.32-12.26 11.51-13.94 19.57l-217.84-24.38 85.65-269.16c5.12 1.5 10.67 1.62 16.13.12zm-839.72-613.68c6.01 5.14 13.92 7.77 22.01 7.04l144 715.48c-.35.11-.7.18-1.04.3a29.65 29.65 0 0 0-8.26 4.37L792.98 963.6l256.25-270.4zm-392.67 119.5a29.774 29.774 0 0 0 7.33-25.59l376.51-106.91c1.15 3.4 2.88 6.42 5 9.06l-256.1 270.26L656.55 812.7zm5.8-30.87c-5.69-14.8-22.1-22.61-37.28-17.46-10.94 3.71-18.27 13.16-19.86 23.85l-454.48-24.42 886.63-88.45-375.01 106.48zm-25.44 362.86c-1.34-3.86-3.35-7.27-5.91-10.15L789.19 967.6l412.66 456.46a30.224 30.224 0 0 0-3.73 5.07l-561.81-263.82c2.57-6.37 2.98-13.64.6-20.64zm198.74 425.39 155.51 279.44-165.41-252.96c7.44-6.5 11.31-16.45 9.9-26.48zm3138.21 891.36c-3.31 1.28-6.27 3.05-8.83 5.26l-446.78-429.23 289.42-69.08v.02c4.81 14.17 19.24 22.31 33.53 19.68l132.65 473.35zM5785.85 508.66c.22 1.91.67 3.83 1.3 5.72 3.35 9.82 11.31 16.76 20.65 19.21l-58.71 270.1-515.05-216.04c.45-2.79.48-5.65.11-8.54l330.48-42.21 221.21-28.25zM3727.65 885.6l47.33 484.99c-1.32.26-2.64.57-3.96 1.02-2.77.95-5.31 2.27-7.59 3.88l-258.07-302.14 202.71-194.99c5.39 4.65 12.34 7.28 19.57 7.24zm-837.47 158.29c1.85-.63 3.59-1.44 5.23-2.37l32.53 46.26-140.62 397.75 90.05-440.26c4.19.47 8.55.07 12.81-1.37zm-964.37-177.83-278.95 670.8c-5.81-1.81-12.21-1.89-18.41.21-1.41.47-2.72 1.08-4.01 1.73l-177.74-279.22 472.16-398.61c2.07 2.03 4.41 3.74 6.95 5.08zM1058.34 291.1l6.26 350.03c-1.87.25-3.75.67-5.59 1.31a29.476 29.476 0 0 0-13.88 9.88L713.77 448.15l320.1-170.78c5.37 8.42 14.62 13.53 24.48 13.74zM20.14 1.67C4.59 6.96-3.74 23.86 1.54 39.43c4.28 12.62 16.22 20.49 28.87 20.2l78.27 675.87c-1.15.25-2.3.54-3.46.92-15.55 5.29-23.88 22.2-18.6 37.76 5.28 15.56 22.21 23.9 37.76 18.62 10.94-3.71 18.27-13.17 19.86-23.85l460.65 24.75c.11 2.8.6 5.63 1.57 8.42 3.61 10.73 12.8 18.02 23.25 19.79l-22.4 302.63c-2.72.12-5.47.61-8.19 1.52-15.58 5.29-23.92 22.19-18.64 37.76 5.25 15.45 21.95 23.76 37.43 18.72l174.15 365.39c-12.57 6.76-18.82 21.78-14.1 35.75 1.45 4.25 3.8 7.95 6.7 10.99L525.43 1893.3c-7.55-5.4-17.49-7.23-26.93-4.03-15.55 5.29-23.89 22.19-18.6 37.76 5.28 15.57 22.17 23.9 37.76 18.62 3.61-1.23 6.81-3.1 9.56-5.41l253.58 250.84c-6.29 7.69-8.63 18.33-5.17 28.44 2.53 7.53 7.85 13.35 14.36 16.77l-190.56 463.2c-5.8-1.78-12.16-1.86-18.3.24-15.58 5.29-23.92 22.2-18.64 37.76 5.28 15.57 22.21 23.9 37.76 18.62 9.82-3.33 16.78-11.3 19.24-20.64l712.61 117.85c-.28 3.85.19 7.82 1.51 11.7.27.77.58 1.52.9 2.26l-147.59 399.24a29.546 29.546 0 0 0-17.26.56c-15.57 5.29-23.9 22.19-18.62 37.76 5.28 15.57 22.19 23.9 37.75 18.62 15.57-5.29 23.91-22.19 18.62-37.76-.32-.95-.69-1.86-1.09-2.75l822.22-469.83 1.42 1.55 1.29-3.1 9.6-5.49-7.53.51 214.72-515.76c5.81 1.81 12.21 1.9 18.41-.21 12.33-4.19 20.09-15.67 20.18-28l440.06-37.95c.26 1.44.59 2.87 1.08 4.29 5.29 15.57 22.19 23.9 37.76 18.62 14.56-4.95 22.8-20.06 19.46-34.74l1170.04 272.31c-.61 4.44-.26 9.07 1.28 13.61 5.28 15.56 22.18 23.9 37.75 18.62 15.57-5.29 23.91-22.19 18.62-37.76-2.14-6.31-6.21-11.41-11.32-14.92l485.55-866.98c6.6 2.93 14.26 3.52 21.64 1 6.81-2.3 12.23-6.84 15.74-12.51l376.41 187.39a29.509 29.509 0 0 0-.45 20.32c5.29 15.57 22.18 23.9 37.76 18.62 11.24-3.81 18.68-13.69 19.98-24.74l382.71 9.02c.15 2.5.63 5.03 1.45 7.52 5.28 15.57 22.21 23.9 37.76 18.62 15.59-5.29 23.92-22.2 18.64-37.76-.52-1.54-1.19-2.98-1.93-4.38l576.09-378.1c7.63 9.52 20.61 13.78 32.82 9.64 15.58-5.29 23.92-22.2 18.64-37.76-3.57-10.51-12.47-17.7-22.62-19.65l37.91-393.27c3.65.19 7.4-.27 11.12-1.52 15.55-5.29 23.89-22.19 18.6-37.76-5.28-15.56-22.17-23.9-37.76-18.62-.41.14-.79.32-1.16.47l-196.1-376.4c9.34-7.64 13.47-20.51 9.38-32.61-5.32-15.56-22.21-23.9-37.76-18.62-11.87 4.02-19.5 14.76-20.16 26.52l-552.7 70.59-.07-.34c-5.32-15.56-22.21-23.9-37.76-18.62-15.59 5.28-23.92 22.19-18.64 37.76a29.7 29.7 0 0 0 8.03 12.33l-294.54 371.3c-7.33-4.6-16.55-5.98-25.41-2.98-11.68 3.98-19.31 14.52-20.13 26.14l-689.85 30.32c-.26-1.66-.63-3.31-1.19-4.96-5.29-15.57-22.2-23.9-37.76-18.62-7.21 2.45-12.85 7.41-16.31 13.56l-343.65-154.17c2.06-6 2.24-12.7.05-19.18-5.29-15.57-22.2-23.9-37.76-18.62-7.62 2.59-13.49 7.98-16.9 14.62L3130.1 613.32c1.7-5.71 1.74-11.98-.32-18.04-5.29-15.57-22.2-23.91-37.76-18.62-15.57 5.29-23.9 22.2-18.62 37.76 2.2 6.49 6.45 11.69 11.74 15.21l-192.93 358.69c-6.49-2.75-13.97-3.26-21.17-.82-13.99 4.76-22.1 18.88-19.77 32.99l-942.64 245.46.69 2.65c-3.44-10.13-11.82-17.17-21.54-19.41l50.75-379.71c3.56.14 7.2-.32 10.77-1.54 15.56-5.28 23.9-22.18 18.62-37.76-5.28-15.57-22.19-23.9-37.76-18.62-9.54 3.24-16.33 10.83-18.98 19.82l-812.91-158.72c.27-3.83-.2-7.77-1.51-11.63-4.04-11.89-14.86-19.54-26.68-20.15l-6.26-350.21c1.57-.26 3.13-.61 4.68-1.14 15.57-5.29 23.9-22.2 18.62-37.76-5.29-15.57-22.19-23.9-37.76-18.62-8.7 2.95-15.12 9.53-18.2 17.47L59.2 33.6c.59-4.36.22-8.9-1.31-13.35C52.61 4.69 35.72-3.65 20.13 1.63z" style="fill:#fff;fill-rule:nonzero;fill-opacity:.301961"/></svg>